<svg width="14" height="14" viewBox="0 0 14 14" fill="none" xmlns="http://www.w3.org/2000/svg">
<path d="M2.15493 13.3447C2.18234 13.2695 2.20486 13.2141 2.22444 13.1567C2.46725 12.4643 2.71397 11.7739 2.95091 11.0794C3.00182 10.9301 3.0498 10.8786 3.22015 10.94C5.33592 11.7046 7.4556 12.4604 9.5743 13.2181C9.83669 13.3121 10.0991 13.4031 10.3722 13.5C10.6307 12.7611 10.8804 12.0489 11.1359 11.3198C9.2003 10.6274 7.28132 9.93989 5.32123 9.23756C6.86228 8.49467 8.35536 7.77454 9.84746 7.05539C11.1144 6.44506 12.3813 5.83275 13.6502 5.22637C13.7745 5.16702 13.7921 5.11558 13.7295 4.99095C13.5474 4.62791 13.3809 4.25696 13.2066 3.88997C13.0784 3.61893 12.9482 3.34888 12.8101 3.06201C9.98747 4.42117 7.18342 5.77241 4.33237 7.14541C5.02849 5.15812 5.70698 3.22029 6.38939 1.27157C5.65314 1.00845 4.94821 0.756201 4.23055 0.5C2.81678 4.5369 1.41084 8.54809 0 12.5751C0.728426 12.8353 1.43433 13.0875 2.15493 13.3447Z" fill="white"/>
</svg>
